<svg xmlns="http://www.w3.org/2000/svg" viewBox="0 0 46.16 50.98" id="twitter"><g style="isolation:isolate"><g><g><g><path fill="#1c96e8" d="M46.16,16.5v18c0,.22-.01.44-.04.66-.2,2.41-1.58,4.6-3.7,5.82l-11.37,6.56-2.09,1.2-.36.21-.35.2-.39.23-.04.03-.08.05-.28.16-.38.22-.26.15s-.04.02-.06.04c-.17.1-.35.19-.53.26-2.2,1.02-4.77.92-6.89-.3l-15.59-9.01c-2.32-1.33-3.75-3.81-3.75-6.48v-18c0-2.68,1.43-5.15,3.75-6.49L19.34,1.01c2.31-1.34,5.17-1.34,7.48,0l15.6,9c2.31,1.34,3.74,3.81,3.74,6.49Z"></path><path d="M46.16,27.97v6.52c0,.22-.01.44-.04.66-.2,2.41-1.58,4.6-3.7,5.82l-11.37,6.56-2.09,1.2-.36.21-.35.2-.39.23-.04.03-.08.05-.28.16c-5.67-5.67-13.34-13.36-15.95-15.97-.16-.09-.24-.28-.2-.45.05-.18.2-.3.39-.3h.59c1.58,0,3.1-.4,4.47-1.13-.63-.63-1.26-1.25-1.89-1.89-.05-.04-.1-.09-.14-.14-.53-.55-.95-1.22-1.19-1.97-.06-.2.11-.39.31-.35.17.03.34.03.5.05-.01-.02-.03-.04-.05-.05-.05-.05-.09-.1-.14-.15-.05-.04-.09-.09-.14-.14-.05-.04-.1-.1-.14-.14-.06-.05-.1-.1-.15-.15-.05-.04-.09-.09-.14-.14-1.11-.97-1.79-2.4-1.77-3.96,0-.2.22-.33.4-.23.37.2.76.36,1.17.46-.97-.97-1.53-2.28-1.53-3.68,0-.91.24-1.81.69-2.59.1-.17.33-.18.45-.04.63.66,1.29,1.29,1.93,1.95,2.09,1.71,4.62,2.76,7.36,3.02h.02s.1-.03.14-.07c.02-.02.06-.07.05-.14-.07-.62-.03-1.26.12-1.9.4-1.7,1.7-3.08,3.37-3.6.54-.17,1.09-.25,1.63-.25,1.26,0,2.47.45,3.41,1.29.13.1.28.16.45.16.05,0,.1,0,.15-.02.89-.22,2.52-1.04,2.52-1.04,0,0,6.57,6.55,12.01,11.92Z" style="mix-blend-mode:multiply" fill="#1c96e8"></path><path fill="#fff" d="M34.66,17.81c-.53.24-1.08.42-1.65.56.62-.59,1.09-1.33,1.36-2.16.08-.24-.18-.44-.39-.31-.79.47-1.64.82-2.52,1.04-.05.01-.1.02-.16.02-.16,0-.32-.06-.44-.17-.94-.83-2.15-1.29-3.41-1.29-.54,0-1.09.08-1.63.25-1.67.52-2.96,1.9-3.37,3.6-.15.64-.19,1.28-.12,1.9,0,.07-.03.12-.05.14-.04.04-.09.06-.14.06,0,0-.01,0-.02,0-3.66-.34-6.96-2.1-9.3-4.97-.12-.15-.35-.13-.44.03-.46.78-.7,1.68-.7,2.59,0,1.4.56,2.72,1.54,3.68-.41-.1-.81-.25-1.18-.46-.18-.1-.4.03-.4.23-.03,2.08,1.19,3.93,3.01,4.76-.04,0-.07,0-.11,0-.29,0-.58-.03-.87-.08-.2-.04-.37.15-.31.35.59,1.85,2.18,3.21,4.08,3.52-1.58,1.06-3.42,1.62-5.33,1.62h-.6c-.18,0-.34.12-.39.3-.05.18.04.36.2.45,2.16,1.25,4.62,1.92,7.11,1.92,2.19,0,4.23-.43,6.08-1.29,1.69-.78,3.19-1.91,4.45-3.33,1.17-1.33,2.09-2.86,2.72-4.56.61-1.62.93-3.34.93-4.99v-.08c0-.26.12-.51.33-.68.79-.64,1.48-1.4,2.05-2.25.15-.22-.09-.51-.33-.4h0Z"></path></g></g></g></g></svg>